<svg width="914" height="400" fill="none" xmlns="http://www.w3.org/2000/svg"><path d="M433.167 198.808h-.56a1.046 1.046 0 0 1-1.064-1.064c0-.784.728-1.456 1.512-1.456h.56l.392-2.268c.476-2.604 2.24-4.956 6.216-4.956.644 0 1.12.504 1.12 1.12 0 .812-.756 1.512-1.568 1.512-1.54 0-2.464.868-2.688 2.1l-.42 2.492h1.876c.616 0 1.036.476 1.036 1.064 0 .784-.728 1.456-1.484 1.456h-1.904l-1.736 9.996c-.532 3.136-2.436 5.824-6.412 5.824-.644 0-1.12-.504-1.12-1.12 0-.812.756-1.512 1.568-1.512 1.708 0 2.604-1.232 2.912-3.024l1.764-10.164Zm27.316 6.748c-.168.952-.084 1.12.56 1.12.672 0 1.008.336 1.008.952 0 .784-.672 1.596-2.296 1.596-1.764 0-2.688-1.26-2.408-2.856l.896-5.04c.056-.28.084-.56.084-.812 0-1.148-.588-1.876-2.072-1.876-2.016 0-2.996 1.092-3.276 2.66l-.924 5.18h.42c.616 0 1.036.476 1.036 1.064 0 .784-.7 1.456-1.484 1.456h-2.156c-.644 0-1.176-.504-1.036-1.344l1.12-6.328c.056-.28.084-.56.084-.812 0-1.148-.588-1.876-2.072-1.876-2.1 0-3.024 1.232-3.304 2.884l-.896 4.956h.42c.616 0 1.036.476 1.036 1.064 0 .784-.7 1.456-1.484 1.456h-3.836a1.046 1.046 0 0 1-1.064-1.064c0-.784.728-1.456 1.512-1.456h.392l1.316-7.672h-.504a1.046 1.046 0 0 1-1.064-1.064c0-.784.728-1.456 1.512-1.456h2.044c.728 0 1.316.308 1.316 1.008 0 .14-.028.308-.028.308.7-.812 2.016-1.708 3.892-1.708 2.156 0 3.108.644 3.836 1.82 1.092-1.204 2.408-1.82 4.312-1.82 2.968 0 4.088 1.652 4.088 3.612 0 .42-.028.84-.112 1.26l-.868 4.788Zm5.714-9.268.392-2.352c.14-.812.952-1.484 1.764-1.484s1.344.672 1.204 1.484l-.42 2.352h1.288c.616 0 1.036.476 1.036 1.064 0 .784-.7 1.456-1.484 1.456h-1.26l-1.176 6.692c-.14.812.112 1.176.7 1.176.224 0 .476-.056.588-.056.532 0 .868.364.868.924 0 .924-.644 1.68-2.632 1.68s-2.884-1.484-2.52-3.556l1.204-6.86h-.644a1.046 1.046 0 0 1-1.064-1.064c0-.784.728-1.456 1.512-1.456h.644Zm10.405 13.076c-3.136 0-5.068-1.68-5.068-5.068 0-4.312 2.184-8.4 7.448-8.4 2.492 0 3.808 1.456 4.2 2.1.14.224.196.476.196.7 0 .728-.616 1.344-1.372 1.344a1.21 1.21 0 0 1-1.008-.476c-.448-.504-1.148-1.092-2.492-1.092-2.464 0-3.892 2.492-3.892 5.572 0 1.82.84 2.744 2.436 2.744 1.288 0 2.1-.672 2.828-1.12.364-.224.56-.28.84-.28.728 0 1.316.588 1.316 1.316 0 .364-.112.728-.616 1.12-.756.588-2.296 1.54-4.816 1.54Z" fill="#FF1D7C"/><path stroke="#FF1D7C" stroke-width="2" stroke-linecap="round" d="M437 213h45"/></svg>